<svg width="400" height="150" viewBox="0 0 400 150" fill="none" xmlns="http://www.w3.org/2000/svg">
<g clip-path="url(#clip0_1_135)">
<path d="M63.1658 79.2832V114.219H70.9093V101.839H104.077V95.2192H70.9093V85.9105H104.077V79.2832H63.1658Z" fill="black"/>
<path d="M359.756 107.603V79.2871H352.02V114.223H395.086V107.603H359.759H359.756Z" fill="black"/>
<path d="M318.056 79.2832L296.234 114.219H304.774L309.028 107.408H335.627L339.882 114.219H348.421L326.6 79.2832H318.06H318.056ZM331.486 100.785H313.158L322.322 86.1174L331.486 100.785Z" fill="black"/>
<path d="M151.545 97.6703C153.399 95.0592 153.52 92.2373 153.52 90.7424C153.52 89.1461 153.395 86.0783 151.545 83.4672C149.809 81.02 145.984 79.291 140.254 79.291H110.447V114.227H118.183V101.847H134.61L145.301 114.227H154.484L143.603 101.624C147.502 101.089 150.168 99.6101 151.542 97.6742L151.545 97.6703ZM140.258 95.2192H118.19V85.9105H140.258C140.258 85.9105 144.91 85.7895 145.453 89.513C145.515 89.9501 145.515 91.1718 145.453 91.6089C144.91 95.3402 140.258 95.2114 140.258 95.2114V95.2192Z" fill="black"/>
<path d="M305.336 85.9105V79.2832H262.27V85.9105H279.927V114.223H287.671V85.9105H305.336Z" fill="black"/>
<path d="M179.877 79.2832L158.056 114.219H166.595L170.85 107.408H197.449L201.703 114.219H210.243L188.421 79.2832H179.881H179.877ZM193.315 100.785H174.987L184.151 86.1174L193.315 100.785Z" fill="black"/>
<path d="M244.164 107.374C241.268 108.158 234.496 108.158 234.301 108.158C234.301 108.158 227.365 108.17 224.43 107.374C220.5 106.308 216.647 104.634 216.647 96.8395C216.647 89.0451 220.496 87.3746 224.43 86.3052V86.3169C227.373 85.5207 234.301 85.5324 234.301 85.5324C234.496 85.5324 241.658 85.5324 244.554 86.3169C247.458 87.1053 250.178 88.3309 251.224 91.8982H259.21C258.886 88.9788 258.121 86.9219 256.868 85.2826C254.472 82.1602 250.955 80.923 247.403 79.955C242.735 78.6944 234.504 78.6944 234.309 78.6944C234.309 78.6944 225.929 78.6748 221.202 79.955C214.879 81.6645 208.681 84.3147 208.681 96.8434C208.681 109.372 214.879 112.022 221.202 113.732C225.929 115.012 234.309 114.992 234.309 114.992C234.512 114.992 242.735 114.992 247.403 113.732C250.963 112.768 254.479 111.534 256.868 108.404C258.121 106.769 258.886 104.704 259.206 101.788H251.228C250.182 105.36 247.068 106.581 244.164 107.37V107.374Z" fill="black"/>
<path d="M4 78.7215L29.5296 94.8292L55.0631 78.7215L29.5296 35L4 78.7215Z" fill="black"/>
</g>
<defs>
<clipPath id="clip0_1_135">
<rect width="391.082" height="80" fill="white" transform="translate(4 35)"/>
</clipPath>
</defs>
</svg>
